<svg xmlns="http://www.w3.org/2000/svg" viewBox="0 -0.5 16 16" shape-rendering="crispEdges">
<metadata>Made with Pixels to Svg https://codepen.io/shshaw/pen/XbxvNj</metadata>
<path stroke="#4f3b33" d="M7 1h1" />
<path stroke="#a1f2c4" d="M6 2h1M5 7h1M4 8h1" />
<path stroke="#4e5a45" d="M7 2h1" />
<path stroke="#3faf6e" d="M8 2h1M8 3h1M8 4h1M8 5h1M8 6h1M9 7h1M10 8h1M4 12h1M4 13h1M4 14h2" />
<path stroke="#77e0a4" d="M6 3h1M6 4h1M6 5h1M6 6h1M4 9h1M4 10h1M4 11h1" />
<path stroke="#3e7154" d="M7 3h1" />
<path stroke="#75615a" d="M7 4h1" />
<path stroke="#7c605b" d="M7 5h1M6 8h1" />
<path stroke="#7c5556" d="M7 6h1M7 7h2M7 8h1M8 10h1" />
<path stroke="#7e645f" d="M6 7h1" />
<path stroke="#7c6c61" d="M5 8h1" />
<path stroke="#79464d" d="M8 8h2" />
<path stroke="#acaaaa" d="M5 9h2" />
<path stroke="#bcbab8" d="M7 9h1M5 11h1" />
<path stroke="#70504c" d="M8 9h1" />
<path stroke="#6b2c3c" d="M9 9h1" />
<path stroke="#316d4b" d="M10 9h1M10 10h1M10 11h1M10 12h1M10 13h1M6 14h5" />
<path stroke="#b0a5a4" d="M5 10h1M7 10h1M6 11h2" />
<path stroke="#a19a99" d="M6 10h1" />
<path stroke="#6b4043" d="M9 10h1" />
<path stroke="#6c4745" d="M8 11h1" />
<path stroke="#5f383d" d="M9 11h1M7 13h1" />
<path stroke="#64514a" d="M5 12h1" />
<path stroke="#6c3f41" d="M6 12h1M5 13h1" />
<path stroke="#5f413f" d="M7 12h1M6 13h1" />
<path stroke="#604842" d="M8 12h1" />
<path stroke="#5d403e" d="M9 12h1M8 13h2" />
</svg>